<svg width="16" height="16" viewBox="0 0 16 16" fill="none" xmlns="http://www.w3.org/2000/svg">
<g clip-path="url(#clip0_32_10)">
<path d="M15.2756 9.81429C14.2738 13.8322 10.2039 16.2774 6.18503 15.2755C2.16789 14.2738 -0.277592 10.204 0.724639 6.18648C1.72599 2.16814 5.79592 -0.277253 9.8135 0.724426C13.832 1.7261 16.2774 5.79628 15.2755 9.81436L15.2755 9.81429H15.2756Z" fill="#F7931A"/>
<path d="M11.3075 6.93146C11.4568 5.93337 10.6969 5.39686 9.65767 5.03896L9.99479 3.68696L9.17169 3.48189L8.84352 4.79829C8.62713 4.74433 8.40491 4.69348 8.18405 4.64307L8.51461 3.31799L7.69203 3.11292L7.35473 4.46447C7.17566 4.42371 6.99979 4.38342 6.82916 4.34097L6.83011 4.33671L5.69505 4.0533L5.47609 4.93232C5.47609 4.93232 6.08676 5.07228 6.07389 5.0809C6.4072 5.16408 6.46747 5.38469 6.45746 5.55956L6.07345 7.0998C6.0964 7.10563 6.12617 7.11406 6.15902 7.12726C6.13156 7.12044 6.10234 7.113 6.07202 7.10574L5.53376 9.26339C5.49303 9.36465 5.38964 9.5166 5.15661 9.4589C5.16486 9.47085 4.55837 9.30962 4.55837 9.30962L4.14972 10.2517L5.22084 10.5187C5.42011 10.5686 5.61538 10.6209 5.80768 10.6701L5.46707 12.0376L6.28921 12.2427L6.62652 10.8897C6.85112 10.9506 7.06908 11.0069 7.28246 11.0599L6.9463 12.4065L7.76943 12.6116L8.10999 11.2466C9.51354 11.5122 10.5689 11.4051 11.0131 10.1358C11.3711 9.11379 10.9953 8.52431 10.2569 8.1399C10.7947 8.01588 11.1998 7.66219 11.3078 6.93157L11.3076 6.93139L11.3075 6.93146ZM9.42694 9.56822C9.17257 10.5902 7.45167 10.0377 6.89372 9.89921L7.34571 8.08751C7.90362 8.22678 9.69279 8.50238 9.42698 9.56822H9.42694ZM9.6815 6.91665C9.44946 7.84626 8.01713 7.37397 7.55249 7.25817L7.96228 5.61506C8.42691 5.73087 9.92322 5.94701 9.68157 6.91665H9.6815Z" fill="white"/>
</g>
<defs>
<clipPath id="clip0_32_10">
<rect width="15" height="15" fill="white" transform="translate(0.5 0.5)"/>
</clipPath>
</defs>
</svg>
