<svg width="68" height="36" viewBox="0 0 68 36" fill="none" xmlns="http://www.w3.org/2000/svg">
<path d="M4.42361 10.7724C4.42361 6.22378 7.31124 3.70242 12.6521 3.68539C16.4938 3.68539 17.1837 6.18971 17.1837 7.09263C17.1837 8.84736 14.705 10.7043 14.705 10.7043C14.705 10.7043 14.8498 11.7861 16.9708 11.7776C19.0918 11.7691 21.1702 10.3721 21.1532 6.86264C21.1532 2.83358 16.8941 0.985155 12.7373 1.00219C9.24485 1.00219 0.0112305 1.50476 0.0112305 10.7043C0.0112305 18.8902 15.4545 19.6057 15.4716 24.8529C15.4716 30.5344 9.11708 32.0677 6.95348 32.0762C4.78988 32.0847 3.91252 30.5429 3.91252 29.6911C3.91252 25.0914 8.47822 23.8051 8.47822 23.8051C8.46842 23.5478 8.40753 23.2949 8.2991 23.0613C8.19066 22.8277 8.03684 22.618 7.84659 22.4444C7.65635 22.2708 7.43347 22.1368 7.19094 22.0501C6.94841 21.9635 6.69106 21.9259 6.43388 21.9397C1.88521 21.9397 0.0623391 25.875 0.0793753 29.7082C0.0793753 32.9706 2.3963 35.0064 5.8802 34.9979C12.5328 34.9979 20.0373 31.7184 20.0117 24.5036C19.9862 17.7573 4.44064 15.994 4.42361 10.7724Z" fill="white"/>
<path d="M67.8834 28.8564C67.8323 28.7286 67.6875 28.7627 67.4831 28.9245C66.6118 29.7414 65.5852 30.375 64.4644 30.7876C63.3436 31.2003 62.1513 31.3836 60.9582 31.3266C53.5901 31.3266 52.3124 19.2054 52.3124 19.2054C52.3124 19.2054 57.9343 15.006 58.7861 13.3194C59.6379 11.6328 56.8951 11.2239 56.8951 11.2239C56.8951 11.2239 52.9683 16.0111 50.1828 17.4166C50.481 15.3382 52.5338 10.6021 52.6616 7.86776C52.7894 5.13345 49.4162 5.83193 48.837 6.11303C48.837 7.30556 45.8386 18.1065 44.7398 24.0437C44.1009 25.0743 43.181 26.2584 42.3547 26.2584C41.8777 26.2584 41.6988 25.4066 41.6988 24.1033C41.6988 22.3486 42.6614 19.5291 42.6614 17.8169C42.6614 16.6329 42.1162 16.5562 41.6477 16.5648H40.8981C39.6971 16.5648 40.0889 15.5426 39.0071 15.5511C35.7021 15.5511 31.4856 19.1713 31.3408 24.6314C30.2249 25.3725 28.6661 26.335 27.8654 26.335C27.0647 26.335 26.7581 25.5258 26.7581 24.8529C26.7581 23.6774 28.6576 16.6925 28.6576 16.6925C28.6576 16.6925 31.0767 16.0707 32.1415 15.8407C32.9422 15.6789 33.1637 15.6193 33.4788 15.2359C33.794 14.8526 34.3988 14.0519 34.8843 13.3364C35.3699 12.6209 34.8843 12.0587 34.0325 12.0672C32.5572 12.2135 31.0941 12.464 29.6542 12.8168C29.6542 12.8168 31.1449 6.2408 31.1364 6.11303C31.1278 5.98526 30.9575 5.9086 30.7105 5.9086C29.928 5.98927 29.1601 6.17552 28.4276 6.46227C27.9631 6.6785 27.5462 6.98488 27.2011 7.36361C26.856 7.74235 26.5896 8.18589 26.4173 8.66846C26.247 9.24769 25.1055 13.7793 25.1055 13.7793C25.1055 13.7793 18.964 15.9004 18.1207 16.224C18.096 16.2328 18.0746 16.2489 18.0593 16.2702C18.0441 16.2916 18.0358 16.3171 18.0355 16.3433C18.0355 16.3944 18.7425 19.0861 20.1736 19.0776C21.2128 19.0776 24.2367 17.8425 24.2367 17.8425C24.2367 17.8425 22.6864 24.0011 22.6949 26.0539C22.6949 27.3742 23.3167 28.9245 25.9062 28.916C27.9706 28.8119 29.9535 28.0776 31.5878 26.812C31.8455 27.4435 32.2909 27.9806 32.8637 28.3507C33.4364 28.7209 34.1091 28.9063 34.7906 28.8819C36.4547 28.7538 38.0092 28.0024 39.1434 26.778C39.3162 27.3476 39.658 27.8514 40.1234 28.2225C40.5889 28.5937 41.1561 28.8147 41.7499 28.8564C42.6699 28.8564 43.6239 27.8172 44.3053 26.8291C44.2919 27.0361 44.2919 27.2438 44.3053 27.4509C44.5864 30.0063 48.394 28.5071 48.5644 28.1494C48.6922 26.2924 48.5644 22.5019 49.3481 20.1679C50.3276 28.1494 54.0586 33.5158 60.7538 33.4902C64.4932 33.4902 66.4098 32.3999 67.2105 31.514C67.5474 31.17 67.7872 30.7428 67.9054 30.276C68.0236 29.8091 68.016 29.3193 67.8834 28.8564ZM35.7872 26.2243C32.5759 26.2243 36.7753 17.9021 39.5182 17.8936C39.4841 18.9669 39.4245 26.2158 35.7872 26.2243Z" fill="white"/>
<path d="M61.8611 28.7797C62.9141 28.7587 63.9514 28.5209 64.9084 28.0813C65.8654 27.6416 66.7216 27.0095 67.4235 26.2243C67.9516 25.4151 66.8016 24.1885 66.4354 24.214C65.9509 24.8153 65.3389 25.3015 64.6435 25.6373C63.9482 25.9732 63.187 26.1504 62.4148 26.1561C59.8594 26.1561 60.4557 23.3792 60.4557 23.3792C60.4557 23.3792 65.328 24.0096 67.2701 20.5086C67.8061 19.4881 67.9544 18.308 67.6875 17.1866C67.4235 16.5137 65.9839 15.2871 63.7607 15.483C60.9923 15.7215 57.4999 18.6091 56.7332 22.076C56.1114 24.8529 57.2784 28.7968 61.8611 28.7797ZM64.9532 17.0844C65.4132 17.0844 65.3706 17.8254 65.2513 18.6091C65.081 19.6739 63.6074 22.3826 60.8134 22.2804C61.0093 20.7046 63.0877 17.1866 64.9532 17.0844Z" fill="white"/>
</svg>
